HIERARCHY
ROOT hip
{
  OFFSET 0 0 0
  CHANNELS 6 Xposition Yposition Zposition Zrotation Yrotation Xrotation
  JOINT abdomen
  {
    OFFSET 0 20.6881 -0.73152
    CHANNELS 3 Zrotation Xrotation Yrotation
    JOINT chest
    {
      OFFSET 0 11.7043 -0.48768
      CHANNELS 3 Zrotation Xrotation Yrotation
      JOINT neck
      {
        OFFSET 0 22.1894 -2.19456
        CHANNELS 3 Zrotation Xrotation Yrotation
        JOINT head
        {
          OFFSET -0.24384 7.07133 1.2192
          CHANNELS 3 Zrotation Xrotation Yrotation
          JOINT leftEye
          {
            OFFSET 4.14528 8.04674 8.04672
            CHANNELS 3 Zrotation Xrotation Yrotation
            End Site
            {
              OFFSET 1 0 0
            }
          }
          JOINT rightEye
          {
            OFFSET -3.6576 8.04674 8.04672
            CHANNELS 3 Zrotation Xrotation Yrotation
            End Site
            {
              OFFSET 1 0 0
            }
          }
        }
      }
      JOINT rCollar
      {
        OFFSET -2.68224 19.2634 -4.8768
        CHANNELS 3 Zrotation Xrotation Yrotation
        JOINT rShldr
        {
          OFFSET -8.77824 -1.95073 1.46304
          CHANNELS 3 Zrotation Xrotation Yrotation
          JOINT rForeArm
          {
            OFFSET -28.1742 -1.7115 0.48768
            CHANNELS 3 Zrotation Xrotation Yrotation
            JOINT rHand
            {
              OFFSET -22.5879 0.773209 7.07136
              CHANNELS 3 Zrotation Xrotation Yrotation
              JOINT rThumb1
              {
                OFFSET -1.2192 -0.487915 3.41376
                CHANNELS 3 Zrotation Xrotation Yrotation
                JOINT rThumb2
                {
                  OFFSET -3.37035 -0.52449 3.41376
                  CHANNELS 3 Zrotation Xrotation Yrotation
                  End Site
                  {
                    OFFSET -1.78271 -1.18214 1.43049
                  }
                }
              }
              JOINT rIndex1
              {
                OFFSET -7.75947 0.938293 5.60832
                CHANNELS 3 Zrotation Xrotation Yrotation
                JOINT rIndex2
                {
                  OFFSET -2.54057 -0.884171 1.56538
                  CHANNELS 3 Zrotation Xrotation Yrotation
                  End Site
                  {
                    OFFSET -1.62519 -0.234802 1.16502
                  }
                }
              }
              JOINT rMid1
              {
                OFFSET -8.24714 1.18213 3.41376
                CHANNELS 3 Zrotation Xrotation Yrotation
                JOINT rMid2
                {
                  OFFSET -3.10165 -0.590103 1.0647
                  CHANNELS 3 Zrotation Xrotation Yrotation
                  End Site
                  {
                    OFFSET -2.48547 -0.328903 0.83742
                  }
                }
              }
              JOINT rRing1
              {
                OFFSET -8.82822 0.546677 1.51678
                CHANNELS 3 Zrotation Xrotation Yrotation
                JOINT rRing2
                {
                  OFFSET -2.60934 -0.819778 -0.0198488
                  CHANNELS 3 Zrotation Xrotation Yrotation
                  End Site
                  {
                    OFFSET -2.33842 -0.294052 0.168128
                  }
                }
              }
              JOINT rPinky1
              {
                OFFSET -8.27202 -0.0477905 -0.4584
                CHANNELS 3 Zrotation Xrotation Yrotation
                JOINT rPinky2
                {
                  OFFSET -1.82734 -0.647385 -0.700984
                  CHANNELS 3 Zrotation Xrotation Yrotation
                  End Site
                  {
                    OFFSET -1.69225 -0.51767 -0.607171
                  }
                }
              }
            }
          }
        }
      }
      JOINT lCollar
      {
        OFFSET 2.68224 19.2634 -4.8768
        CHANNELS 3 Zrotation Xrotation Yrotation
        JOINT lShldr
        {
          OFFSET 8.77824 -1.95073 1.46304
          CHANNELS 3 Zrotation Xrotation Yrotation
          JOINT lForeArm
          {
            OFFSET 28.1742 -1.7115 0.48768
            CHANNELS 3 Zrotation Xrotation Yrotation
            JOINT lHand
            {
              OFFSET 22.5879 0.773209 7.07136
              CHANNELS 3 Zrotation Xrotation Yrotation
              JOINT lThumb1
              {
                OFFSET 1.2192 -0.487915 3.41376
                CHANNELS 3 Zrotation Xrotation Yrotation
                JOINT lThumb2
                {
                  OFFSET 3.37035 -0.52449 3.41376
                  CHANNELS 3 Zrotation Xrotation Yrotation
                  End Site
                  {
                    OFFSET 1.78271 -1.18214 1.43049
                  }
                }
              }
              JOINT lIndex1
              {
                OFFSET 7.75947 0.938293 5.60832
                CHANNELS 3 Zrotation Xrotation Yrotation
                JOINT lIndex2
                {
                  OFFSET 2.54057 -0.884171 1.56538
                  CHANNELS 3 Zrotation Xrotation Yrotation
                  End Site
                  {
                    OFFSET 1.62519 -0.234802 1.16502
                  }
                }
              }
              JOINT lMid1
              {
                OFFSET 8.24714 1.18213 3.41376
                CHANNELS 3 Zrotation Xrotation Yrotation
                JOINT lMid2
                {
                  OFFSET 3.10165 -0.590103 1.0647
                  CHANNELS 3 Zrotation Xrotation Yrotation
                  End Site
                  {
                    OFFSET 2.48547 -0.328903 0.83742
                  }
                }
              }
              JOINT lRing1
              {
                OFFSET 8.82822 0.546677 1.51678
                CHANNELS 3 Zrotation Xrotation Yrotation
                JOINT lRing2
                {
                  OFFSET 2.60934 -0.819778 -0.0198488
                  CHANNELS 3 Zrotation Xrotation Yrotation
                  End Site
                  {
                    OFFSET 2.33842 -0.294052 0.168128
                  }
                }
              }
              JOINT lPinky1
              {
                OFFSET 8.27202 -0.0477905 -0.4584
                CHANNELS 3 Zrotation Xrotation Yrotation
                JOINT lPinky2
                {
                  OFFSET 1.82734 -0.647385 -0.700984
                  CHANNELS 3 Zrotation Xrotation Yrotation
                  End Site
                  {
                    OFFSET 1.69225 -0.51767 -0.607171
                  }
                }
              }
            }
          }
        }
      }
    }
  }
  JOINT rButtock
  {
    OFFSET -8.77824 4.35084 1.2192
    CHANNELS 3 Zrotation Xrotation Yrotation
    JOINT rThigh
    {
      OFFSET 0 -1.70687 -2.19456
      CHANNELS 3 Zrotation Xrotation Yrotation
      JOINT rShin
      {
        OFFSET 0 -36.8199 0.73152
        CHANNELS 3 Zrotation Xrotation Yrotation
        JOINT rFoot
        {
          OFFSET 0.73152 -45.1104 -5.12064
          CHANNELS 3 Zrotation Xrotation Yrotation
          End Site
          {
            OFFSET -1.1221 -3.69964 12.103
          }
        }
      }
    }
  }
  JOINT lButtock
  {
    OFFSET 8.77824 4.35084 1.2192
    CHANNELS 3 Zrotation Xrotation Yrotation
    JOINT lThigh
    {
      OFFSET 0 -1.70687 -2.19456
      CHANNELS 3 Zrotation Xrotation Yrotation
      JOINT lShin
      {
        OFFSET 0 -36.8199 0.73152
        CHANNELS 3 Zrotation Xrotation Yrotation
        JOINT lFoot
        {
          OFFSET -0.73152 -45.1104 -5.12064
          CHANNELS 3 Zrotation Xrotation Yrotation
          End Site
          {
            OFFSET 1.1221 -3.69964 12.103
          }
        }
      }
    }
  }
}
MOTION
Frames:	4
Frame Time:	0.03333
0.0 0.0 0.0 0.0 0.0 0.0 0.0 0.0 0.0 0.0 0.0 0.0 0.0 0.0 0.0 0.0 0.0 0.0 0.0 0.0 0.0 0.0 0.0 0.0 0.0 0.0 0.0 0.0 0.0 0.0 0.0 0.0 0.0 0.0 0.0 0.0 0.0 0.0 0.0 0.0 0.0 0.0 0.0 0.0 0.0 0.0 0.0 0.0 0.0 0.0 0.0 0.0 0.0 0.0 0.0 0.0 0.0 0.0 0.0 0.0 0.0 0.0 0.0 0.0 0.0 0.0 0.0 0.0 0.0 0.0 0.0 0.0 0.0 0.0 0.0 0.0 0.0 0.0 0.0 0.0 0.0 0.0 0.0 0.0 0.0 0.0 0.0 0.0 0.0 0.0 0.0 0.0 0.0 0.0 0.0 0.0 0.0 0.0 0.0 0.0 0.0 0.0 0.0 0.0 0.0 0.0 0.0 0.0 0.0 0.0 0.0 0.0 0.0 0.0 0.0 0.0 0.0 0.0 0.0 0.0 0.0 0.0 0.0 0.0 0.0 0.0 0.0 0.0 0.0 0.0 0.0 0.0
0.0907 50.267799999999994 0.33440000000000003 -54.944504 -71.299005 58.170362 10.585398 9.858443 46.837237 -2.303459 -7.434245 -42.085418 3.635235 13.513265 29.818592 -10.115404 -24.114844 -10.342215 -0.002289 -0.0 0.002499 0.003379 0.0 0.001821 -151.14616 18.028965 156.400734 -175.100644 22.886142 113.697733 4.332681 71.599885 95.006746 -10.303427 -11.428347 -4.281799 -9.19901 8.757544 2.097854 -74.062516 21.738637 69.696188 -68.788906 43.275867 56.539025 -174.521253 -26.135397 112.457502 1.669988 -4.987682 -0.874688 -4.139247 19.465169 3.868006 0.006036 1.475712 0.462082 8.849326 15.172025 2.039427 -136.232072 -11.05212 -133.5732 21.043121 54.132989 6.410117 131.507054 53.663352 -135.407507 -136.099377 -20.631411 -157.942164 -176.356863 1.258452 -120.733378 -137.678902 -47.982452 -131.897745 152.010432 9.74716 -86.832411 -10.262685 -47.694404 -20.891972 -23.571551 -41.540212 5.641519 125.134915 29.124418 -100.798352 154.943116 9.621314 -139.964831 160.167327 4.124492 -141.807413 0.240786 10.766019 -3.416408 157.07376 -16.568265 -173.887078 126.010035 -27.624479 123.74609 0.71326 -8.933625 4.764036 0.001365 5.4e-05 0.00144 -14.274477 6.612789 -170.342059 -20.021815 -40.729258 -92.367669 -104.306275 -22.827367 -172.185265 0.006541 -0.001139 0.005947 91.203111 -53.123215 -0.117026 -84.142662 19.905305 151.573309 -82.404474 41.718002 -0.154292
0.1308 50.226400000000005 0.5443 -54.501459 -71.369787 58.234225 10.207536 10.08981 45.996448 -2.276182 -7.538432 -40.690274 -9.97234 19.619762 -57.879083 36.886318 -1.978274 80.836324 0.003429 -0.0 -0.000649 -0.00302 0.0 -0.003169 -2.391154 -76.868173 -21.936717 112.781712 41.582145 -115.817026 -6.723231 -4.355869 92.314858 -7.095302 -23.38328 -5.775011 -29.870649 24.516824 10.938062 -144.510286 -43.70344 101.400984 -160.13224 -33.217395 122.702883 -43.586059 54.550431 30.859711 178.213411 -60.574481 141.064068 -15.079024 38.126404 12.048984 -145.087876 -2.217242 -178.432709 -135.299653 -63.842768 -157.473649 7.005648 21.500608 6.235297 13.864552 40.427591 8.204835 155.222987 -1.721466 -161.453703 -143.904713 26.545211 155.518895 177.934571 -0.523076 -120.31387 -127.830127 -53.827386 -122.55542 15.961805 14.598624 -4.435586 117.633407 -14.4743 -102.478998 6.317598 9.497597 -3.912606 177.685017 -32.942902 -106.866967 142.319175 33.969564 -130.208503 -1.544794 5.200661 -1.07583 0.06522 -3.689725 1.162942 155.614682 -9.543186 -173.00786 23.030823 -36.039252 22.137555 142.542659 -0.591279 140.083616 -0.003019 -0.000558 -0.001771 -13.510996 7.243087 -104.488513 -47.554588 -7.987212 -84.204329 76.876699 -10.243451 165.358532 0.001645 -0.000558 0.001857 92.100327 -53.296446 -7.280498 -81.202225 8.235657 108.22989 -82.787464 -3.608931 8.552049
0.13949999999999999 50.1883 0.7865000000000001 -53.683332 -71.287658 57.981302 10.035679 6.849713 139.840996 -5.093939 0.303347 -133.913698 -10.678311 21.932183 -71.390209 39.782338 5.790149 91.415256 -0.000321 -0.0 0.001747 -0.001094 0.0 -0.001482 -155.406159 -2.882401 161.703822 31.898641 -62.913106 79.549474 -104.083647 -50.502323 -21.049237 1.383188 -51.760758 -6.438807 17.853484 -17.622631 0.025216 -3.81398 -3.106832 -9.265528 -8.221239 12.054887 5.205733 -174.394032 -28.827787 108.145214 -137.654954 39.753091 126.166529 10.565446 -21.686918 -1.235681 0.005292 0.950571 0.299357 -155.668769 -3.810615 172.312413 -152.138084 37.082275 -147.536755 -28.778598 -42.116646 -29.472797 26.285764 55.876582 -28.601325 -90.527897 -35.641992 -95.139434 -3.249003 -6.86881 -24.902424 13.074236 64.817546 -11.503656 4.43978 4.319017 -0.845437 8.050726 8.932307 -9.485616 12.147107 16.878546 -8.010706 78.745186 48.445638 -59.708148 -21.158007 -57.385747 0.211693 -15.365256 -36.244042 0.828338 145.110893 -0.708169 178.906919 153.969608 -13.60184 177.339327 17.158433 -30.228679 16.40556 -134.122209 86.687158 93.865155 0.00589 0.000561 0.002624 -13.760111 6.820525 -123.376926 -43.945156 -18.747809 -93.000954 -84.209236 27.021509 -162.551773 179.989556 75.75047 0.007111 -142.430289 -12.994459 -83.117495 -82.847034 16.701409 129.025914 -158.601993 -22.928693 31.106583
